<svg id="Layer_3" data-name="Layer 3" xmlns="http://www.w3.org/2000/svg" viewBox="0 0 32 32"><title>chc</title><path d="M16,0A16,16,0,1,1,0,16,16,16,0,0,1,16,0Zm8.36,23.94s3.45-1.85,1.68-5-4.93-1.28-4.93-1.28L17,20.07a4.15,4.15,0,0,1,2.25,1.07l2.82-1.57s1.27-.73,1.92.22a1.29,1.29,0,0,1-.11,1.89c-.39.33-6.62,3.88-6.62,3.88l-.32.16a1.12,1.12,0,0,1-1.36-.21,1.29,1.29,0,0,1-.21-1.88,3.25,3.25,0,0,1,.37-.39l-2-1.12a3.34,3.34,0,0,0-.06,4.54,3.21,3.21,0,0,0,4.14,1l1-.52C20.74,26,24.36,23.94,24.36,23.94ZM26,13.32c1.76-3.12-1.44-4.88-1.44-4.88L20.36,6.12A4.14,4.14,0,0,1,20.6,8.6l2.8,1.6s1.28.72.8,1.76-1.2,1-1.68.88S16,9.08,16,9.08A1.66,1.66,0,0,1,15.08,8L13.16,9.08s-.08,1,1.84,2.08,5.84,3.28,5.84,3.28S24.2,16.44,26,13.32ZM17.74,24.19l2-.94a5.81,5.81,0,0,0-2.58-2.57c-1-.51-2.29-1.28-3.52-1.95l-.05,2.33,2.73,1.55S17.57,23.39,17.74,24.19Zm1.4-14.14a3.18,3.18,0,0,0,.29-4C17.56,3,14.47,5,14.47,5L9.64,7.64a5.22,5.22,0,0,1,2.48,1.12l3.34-2S16.71,6,17.39,7a1.47,1.47,0,0,1-.07,2Zm-3.58,2.31-2-1.2-2.7,1.59a3.55,3.55,0,0,1-2.1.49L8.6,15.4a5.8,5.8,0,0,0,3.52-1C13,13.86,14.37,13.09,15.56,12.36ZM11.85,22.55A5.78,5.78,0,0,0,12.77,19c0-1.08,0-2.62-.09-4l-2,1.14c0,1.7,0,3.14,0,3.14s0,1.51-.62,2.06ZM10.65,11.8l1.81-1.05A3.16,3.16,0,0,0,9.17,8.52c-3.58.1-3.44,3.75-3.44,3.75l-.09,5.52a5.27,5.27,0,0,1,2.21-1.6l0-3.87s0-1.47,1.1-1.59A1.46,1.46,0,0,1,10.65,11.8ZM7.72,23.36l4.72,2.85a5.23,5.23,0,0,1-.26-2.7L8.82,21.58s-1.29-.7-.82-1.75a1.45,1.45,0,0,1,1.8-.95v-2.1A3.17,3.17,0,0,0,6.22,18.5C4.5,21.64,7.72,23.36,7.72,23.36Z"/></svg>