<?xml version="1.0" encoding="UTF-8"?>
<svg width="32px" height="32px" viewBox="0 0 32 32" version="1.1" xmlns="http://www.w3.org/2000/svg" xmlns:xlink="http://www.w3.org/1999/xlink">
    <!-- Generator: Sketch 51 (57462) - http://www.bohemiancoding.com/sketch -->
    <title>usdt-circle</title>
    <desc>Created with Sketch.</desc>
    <defs></defs>
    <g id="Page-1" stroke="none" stroke-width="1" fill="none" fill-rule="evenodd">
        <g id="usdt-circle">
            <circle id="Oval" fill="#000000" fill-rule="nonzero" cx="16" cy="16" r="16"></circle>
            <path d="M12.9447281,27.5868727 C12.8103941,27.585953 12.6857211,27.5549115 12.5311451,27.4433923 L14.5123413,27.4433923 C19.9388361,26.8970627 24.0666157,22.9835407 24.9158641,17.5793392 C25.6901247,12.6520264 22.6358668,8.14710721 17.8134149,7.10756355 C17.1104617,6.95603528 16.3950872,6.91165751 15.6712019,6.87762688 C16.1512619,6.62262712 16.690438,6.56192384 17.2079919,6.49501227 C22.2347051,5.84314182 26.9202928,9.18895025 27.8051949,14.1725976 C28.4658236,17.8932028 27.4337062,21.2367118 24.8990724,24.0092882 C21.7594756,27.4440821 17.8285964,28.6386031 13.260551,27.6818366 C13.1533598,27.6593028 13.0500791,27.6190639 12.9447281,27.5868727 Z M19.3213828,4.50226615 C18.2766141,4.50180627 17.2461068,4.54296494 16.2303211,4.75358692 C13.6903967,5.28060176 11.5458835,6.49328774 9.82576447,8.45027871 C8.21674699,10.2808045 7.27318878,12.4058792 7.01855228,14.8199842 C6.74620393,17.4037826 7.36933879,19.7463773 9.04805352,21.7709697 C10.5192867,23.5447011 12.3969721,24.6106875 14.6682285,24.9815753 C15.2182157,25.0712506 15.7737236,25.1225265 16.334752,25.149659 C15.2656007,25.5279049 14.1630959,25.6752943 13.0456396,25.5934368 C10.5565505,25.4106372 8.37914389,24.4925001 6.65143407,22.6626641 C4.5996205,20.4893027 3.77728491,17.8843502 4.0510134,14.9165576 C4.31209057,12.0862672 5.44449844,9.64870862 7.41166319,7.62089715 C9.21137052,5.76553819 11.4154599,4.62367271 13.9703359,4.17414652 C15.6837842,3.87246962 17.3767604,3.96881308 19.053635,4.4160399 C19.1440344,4.43995331 19.2321335,4.47329413 19.3213828,4.50226615 Z M14.759088,18.0312567 C14.7588579,16.9144543 14.7462066,15.7971921 14.7657586,14.6803897 C14.7724293,14.2966254 14.6339549,14.1775182 14.260396,14.1841864 C13.2121769,14.2025813 12.1634978,14.1837265 11.1152787,14.1940736 C10.7615019,14.1975227 10.7037659,14.0779556 10.8650126,13.778808 C11.4849272,12.6293546 12.5043933,12.1034895 13.7474427,11.9549504 C15.1625499,11.785717 16.5859381,11.9041344 18.0054159,11.8806808 C18.9570249,11.8650451 19.909094,11.8747025 20.8609331,11.8793012 C21.3129301,11.8813707 21.3584749,11.9533408 21.1362717,12.359409 C20.485534,13.5484115 19.4916005,14.1805074 18.1199678,14.1901647 C17.18078,14.1968329 17.2555378,14.0800251 17.2541577,15.0577158 C17.2523175,16.3816911 17.2233344,17.7063562 17.2615184,19.0291819 C17.3029227,20.4529497 16.0727547,21.4230525 15.0355767,21.813485 C14.7344754,21.9268437 14.7639185,21.6759828 14.7627683,21.5062896 C14.7565577,20.7617546 14.759548,20.0172197 14.759318,19.2724549 C14.759088,18.8587988 14.759088,18.4451427 14.759088,18.0312567 Z" id="Combined-Shape-Copy" fill="#FFFFFF"></path>
        </g>
    </g>
</svg>